Coordinates
version=1
nRows=10
nColumns=40
inDegrees=yes

Units are S.I. units (second, meters, Newtons, ...)
Angles are in degrees.

endheader
time	pelvis_tilt	pelvis_list	pelvis_rotation	pelvis_tx	pelvis_ty	pelvis_tz	hip_flexion_r	hip_adduction_r	hip_rotation_r	knee_angle_r	knee_angle_r_beta	ankle_angle_r	subtalar_angle_r	mtp_angle_r	hip_flexion_l	hip_adduction_l	hip_rotation_l	knee_angle_l	knee_angle_l_beta	ankle_angle_l	subtalar_angle_l	mtp_angle_l	lumbar_extension	lumbar_bending	lumbar_rotation	arm_flex_r	arm_add_r	arm_rot_r	elbow_flex_r	pro_sup_r	wrist_flex_r	wrist_dev_r	arm_flex_l	arm_add_l	arm_rot_l	elbow_flex_l	pro_sup_l	wrist_flex_l	wrist_dev_l
      3.45764286	     -7.68147121	     -4.96189183	      2.43610509	      0.73774044	      0.91811343	      0.49982929	      4.79749896	      3.66044081	    -15.92817583	     12.35497453	     12.35497453	     16.41513030	      0.97619567	     -4.02116863	     33.41237779	     -7.15095075	     -2.40591156	     18.32199000	     18.32199000	      4.27233031	     -8.16247517	      7.30592515	     -9.21282885	      6.39796293	      2.85627740	     35.23174694	    -16.89478271	     -4.88809006	    106.93766118	     44.15962922	      0.00000000	      0.00000000	     -8.96319195	     -7.03837510	    -11.26306016	     27.81108063	     46.09873323	      0.00000000	      0.00000000
      3.47028571	     -7.58627723	     -5.16263131	      2.35143769	      0.73993274	      0.91720096	      0.49826490	      3.80302022	      3.85296624	    -16.11105234	     11.80964475	     11.80964475	     16.76987139	      1.62733100	     -3.80624224	     32.97214614	     -7.25397877	     -2.50990700	     18.66114734	     18.66114734	      3.47618599	     -8.51436623	      6.55933097	     -9.16227530	      6.58267685	      2.64658837	     35.93733337	    -16.23365249	     -4.53955880	    108.03408338	     44.12972915	      0.00000000	      0.00000000	     -9.87122415	     -6.98684014	    -10.69853825	     28.15621761	     45.98655971	      0.00000000	      0.00000000
      3.48292857	     -7.55255586	     -5.24759245	      2.20029062	      0.74215953	      0.91622630	      0.49656703	      3.13147345	      3.80366224	    -16.27008399	     11.82276973	     11.82276973	     17.51106650	      2.42308462	     -2.65937245	     32.36310977	     -7.23222145	     -2.56512592	     18.57676648	     18.57676648	      1.24247729	     -9.58707946	      2.39416564	     -8.98406662	      6.57932182	      2.52561489	     36.48825330	    -15.91863476	     -3.82917575	    108.23453428	     44.19697599	      0.00000000	      0.00000000	    -11.64441297	     -7.48706702	     -6.74927891	     30.43815510	     45.34096991	      0.00000000	      0.00000000
      3.49557143	     -7.54177014	     -5.29722306	      2.08886350	      0.74422513	      0.91543949	      0.49475567	      2.50730304	      3.74920521	    -16.14359721	     11.77968016	     11.77968016	     17.72887320	      2.53771748	     -2.67892715	     32.11232302	     -7.20857503	     -2.59991672	     19.23304502	     19.23304502	      1.06135130	     -9.89370106	      2.37387235	     -8.80759545	      6.53754288	      2.59773637	     36.81058321	    -15.64669488	     -3.79465998	    108.65539805	     44.19082075	      0.00000000	      0.00000000	    -12.02186499	     -7.37819490	     -6.49447786	     30.19612344	     45.30218358	      0.00000000	      0.00000000
      3.50821429	     -7.53279457	     -5.30943217	      2.02420491	      0.74622158	      0.91488512	      0.49274355	      1.96406010	      3.61166011	    -16.05510859	     11.88135801	     11.88135801	     17.88757145	      2.60229291	     -2.65863180	     31.90108644	     -7.12358723	     -2.53718238	     19.95808563	     19.95808563	      1.02768169	    -10.23794929	      2.21827209	     -8.66493788	      6.46269696	      2.58453414	     36.91733164	    -15.41078498	     -3.70768666	    108.98421177	     44.18436092	      0.00000000	      0.00000000	    -12.31331754	     -7.28884435	     -6.23554504	     29.97976952	     45.26346575	      0.00000000	      0.00000000
      3.52085714	     -7.49107979	     -5.25095073	      2.00063237	      0.74814815	      0.91464841	      0.49055687	      1.46254114	      3.36809338	    -15.98134541	     12.10723143	     12.10723143	     17.99114500	      2.55876602	     -2.64960380	     31.65016238	     -6.95453302	     -2.43042459	     20.67751663	     20.67751663	      1.17477253	    -10.57246266	      2.02466515	     -8.57399393	      6.28940862	      2.56514001	     36.84758860	    -15.27888964	     -3.63877247	    109.12692019	     44.18046013	      0.00000000	      0.00000000	    -12.48417186	     -7.16502307	     -6.07956286	     29.83324920	     45.23952362	      0.00000000	      0.00000000
      3.53350000	     -7.51740034	     -5.29377523	      2.02574370	      0.74974602	      0.91439633	      0.48821787	      1.31019396	      3.14902391	    -15.93873243	     12.81919836	     12.81919836	     18.13858764	      2.33413078	     -2.56626583	     31.67927582	     -6.83556785	     -2.07014555	     21.69900773	     21.69900773	      1.48623018	    -11.16606862	      1.79380739	     -8.48432107	      6.27981422	      2.40199206	     36.80379622	    -15.07397095	     -3.47235736	    109.43505897	     44.17739609	      0.00000000	      0.00000000	    -12.43900944	     -7.14241765	     -5.49795570	     29.48436150	     45.16246065	      0.00000000	      0.00000000
      3.54614286	     -7.51378109	     -5.21589818	      2.07528530	      0.75120983	      0.91449543	      0.48566383	      1.27298977	      2.75900152	    -15.79870943	     13.79112262	     13.79112262	     18.26208257	      1.91104184	     -2.47988677	     31.59096065	     -6.56998934	     -1.74569558	     22.57610935	     22.57610935	      1.98869625	    -11.72048989	      1.81321739	     -8.43010404	      6.14824001	      2.41072857	     36.48713334	    -15.11995301	     -3.39446256	    109.40013382	     44.19051400	      0.00000000	      0.00000000	    -12.20613991	     -7.15443578	     -4.77354019	     29.13058893	     45.06983248	      0.00000000	      0.00000000
      3.55878571	     -7.34948940	     -5.14114050	      2.11340141	      0.75285752	      0.91514905	      0.48307837	      0.95947307	      2.39627823	    -15.74300378	     14.55640081	     14.55640081	     18.18858903	      1.58760618	     -2.48673217	     31.21159056	     -6.33685418	     -1.50199996	     23.27813790	     23.27813790	      2.59138310	    -12.11217924	      1.71109319	     -8.55805010	      5.99855207	      2.33476928	     35.92870027	    -15.11985436	     -3.34782699	    109.21383091	     44.19851333	      0.00000000	      0.00000000	    -11.98455352	     -7.16694516	     -4.50659994	     29.04178272	     45.03812400	      0.00000000	      0.00000000
      3.57142857	     -7.38826895	     -5.03156668	      2.15333126	      0.75407736	      0.91559205	      0.48029026	      1.25978910	      1.87999874	    -15.58452682	     16.02189288	     16.02189288	     18.15368986	      0.88122280	     -2.65889170	     31.07203733	     -6.01445771	     -1.22330254	     23.97290665	     23.97290665	      3.31277098	    -12.58299399	      1.95099512	     -8.51453174	      5.87350675	      2.37691556	     35.30843673	    -15.30402143	     -3.39548543	    108.81341032	     44.22112630	      0.00000000	      0.00000000	    -11.52764422	     -7.14671980	     -4.01404791	     28.89098673	     44.98093697	      0.00000000	      0.00000000
